<?xml version="1.0" encoding="utf-8"?>
<!-- Generator: Adobe Illustrator 18.0.0, SVG Export Plug-In . SVG Version: 6.00 Build 0)  -->
<!DOCTYPE svg PUBLIC "-//W3C//DTD SVG 1.1//EN" "http://www.w3.org/Graphics/SVG/1.1/DTD/svg11.dtd">
<svg version="1.1" id="Calque_1" xmlns="http://www.w3.org/2000/svg" xmlns:xlink="http://www.w3.org/1999/xlink" x="0px" y="0px"
	 viewBox="0 0 86 31" enable-background="new 0 0 86 31" xml:space="preserve">
<path fill="#FED224" d="M31.9,6.5c-1.9-3.2-5.2-5.1-9.3-6l-0.1,0C20.7,0.2,18.8,0,16.8,0C7.7,0,0.2,3.6,0.2,13.1c0,0.3,0,0.5,0,0.8
	l0,0.2c0,0.6,0.1,1.1,0.2,1.7v0c0.5,3.4,2,6.4,4.1,8.8l0.1,0.1c3,3.4,7.4,5.5,12.2,5.5c3.6,0,6.5-0.7,8.9-2c4.1,0.8,7.2-0.4,9.1-1.5
	L36,26c0.6-0.5,0.9-0.8,0.9-0.8c-3.5,1-5.6,0.1-6.8-0.7c0.3-0.4,0.5-0.7,0.7-1.1l0.1-0.1c1.8-2.9,2.6-6.4,2.6-10.3
	c0-2.2-0.4-4.1-1.2-5.7 M35.3,26.5L35.3,26.5"/>
<path fill="#DB5B71" d="M29.1,11.1c1.8-2.9-0.7-5.5-2.4-4.5C26.5,6.7,26.4,7,26.3,7c0.8,0.3,1.7,3.2-0.3,4.4
	C25,12.1,23.9,12,23,11.6c-0.2-1.3-0.5-2.2-0.8-2.5c-0.9-0.7-2-0.2-1.4,1.4c0.2,0.5,0.6,0.9,1.2,1.3c0.1,3.5-0.8,10.4-2.6,10.5
	c-1.6,0-0.6-7.3-0.2-9c0,0,0.4-1.8-2-1.5c-0.2,0-0.6,1.1-0.9,2.6c-0.9,2.9-2.5,7.4-3.3,7.4c-1.2-0.1,0.5-8.8,2.6-13.3
	c0,0,0.6-2-1.2-2.1c-0.5,0-0.9,0.2-1.4,0.7c-2.6,1.9-6.8,3-8.1,6c-1.5,3.4,2.2,5.1,3.3,3.9l0,0c-1-1.1-1-2.8,0-4
	c0.6-0.7,2.2-2.5,3.6-3.9c-0.7,1.6-1.3,3.7-1.8,6c-1.1,4.7-1.3,8.7,2.6,8.9c1.1,0,2.3-2.4,3.2-5.1c0.1,2.3,0.8,4.4,2.9,4.6
	c3.6,0.5,4.7-6.7,4.3-11.1C25,13.2,27.7,13.3,29.1,11.1 M21.5,10c0.2-0.1,0.4,0.3,0.5,1C21.5,10.6,21.3,10.1,21.5,10"/>
<text transform="matrix(0.997 0 0 1 37.5372 16.1978)" fill="#FFFFFF" font-family="'Gotham-Bold'" font-size="9.2192">WELCOM</text>
<text transform="matrix(0.9571 0 0 1 46.0118 22.7398)" fill="#FFFFFF" font-family="'Gotham-Light'" font-size="5.509">T</text>
<text transform="matrix(0.9571 0 0 1 49.1476 22.7398)" fill="#FFFFFF" font-family="'Gotham-Light'" font-size="5.509">O</text>
<text transform="matrix(0.9571 0 0 1 53.6173 22.7398)" fill="#FFFFFF" font-family="'Gotham-Bold'" font-size="5.509"> </text>
<text transform="matrix(0.9571 0 0 1 55.2023 22.7398)" fill="#FFFFFF" font-family="'Gotham-Light'" font-size="5.509">P</text>
<text transform="matrix(0.9571 0 0 1 58.3536 22.7398)" fill="#FFFFFF" font-family="'Gotham-Light'" font-size="5.509">ARIS</text>
<text transform="matrix(0.9571 0 0 1 71.1515 22.7398)" fill="#091137" font-family="'Gotham-Light'" font-size="9.2195"> </text>
<path fill="#DB5B71" d="M82.8,11.9c0,0,2.2,0.3,2.8-1c1.3-2.6-0.8-4-2.3-3.1c-0.1,0.1-0.3,0.3-0.3,0.3C83.7,8.4,84.4,10.8,82.8,11.9
	"/>
</svg>
