<?xml version="1.0" encoding="utf-8"?>
<!-- Generator: Adobe Illustrator 18.0.0, SVG Export Plug-In . SVG Version: 6.00 Build 0)  -->
<!DOCTYPE svg PUBLIC "-//W3C//DTD SVG 1.1//EN" "http://www.w3.org/Graphics/SVG/1.1/DTD/svg11.dtd">



<svg version="1.1" id="Calque_1" xmlns="http://www.w3.org/2000/svg" xmlns:xlink="http://www.w3.org/1999/xlink" x="0px" y="0px"
	 viewBox="0 0 86 31" enable-background="new 0 0 86 31" xml:space="preserve">

<path fill="#FCD23D" d="M30.9,8.3c-1.6-2.7-4.4-4.3-7.8-5l-0.1,0c-1.5-0.3-3.1-0.4-4.7-0.4c-7.7,0-14,3-14,11c0,0.2,0,0.5,0,0.7
	l0,0.2c0,0.5,0.1,1,0.1,1.4l0,0c0.4,2.8,1.7,5.4,3.5,7.4L8,23.6c2.6,2.8,6.2,4.6,10.2,4.6c3,0,5.5-0.6,7.5-1.7
	c3.4,0.6,6.1-0.3,7.6-1.3l1-0.6c0.5-0.4,0.8-0.7,0.8-0.7c-2.9,0.8-4.7,0.1-5.7-0.6c0.2-0.3,0.4-0.6,0.6-0.9l0-0.1
	c1.5-2.4,2.2-5.4,2.2-8.6c0-1.9-0.3-3.5-1-4.8 M33.8,25.1C33.8,25.1,33.8,25.1,33.8,25.1"/>
<path fill="#D95E72" d="M28.5,12.1c1.5-2.4-0.6-4.7-2-3.7c-0.1,0.1-0.3,0.3-0.3,0.3c0.6,0.3,1.4,2.7-0.2,3.7
	c-0.9,0.6-1.9,0.5-2.6,0.2c-0.1-1.1-0.4-1.8-0.7-2.1C22,10,21,10.4,21.5,11.7c0.1,0.4,0.5,0.8,1,1.1c0.1,2.9-0.7,8.8-2.2,8.8
	c-1.3,0-0.5-6.1-0.2-7.6c0,0,0.3-1.5-1.6-1.3c-0.2,0-0.5,0.9-0.8,2.2c-0.8,2.4-2.1,6.2-2.8,6.2c-1-0.1,0.4-7.4,2.2-11.2
	c0,0,0.5-1.7-1-1.8c-0.4,0-0.8,0.2-1.1,0.6c-2.2,1.6-5.7,2.6-6.8,5.1c-1.3,2.9,1.8,4.3,2.8,3.3l0,0c-0.9-0.9-0.8-2.4,0-3.3
	c0.5-0.6,1.9-2.1,3.1-3.3c-0.6,1.3-1.1,3.1-1.5,5c-0.9,3.9-1.1,7.3,2.2,7.5c0.9,0,1.9-2,2.7-4.3c0.1,2,0.7,3.7,2.4,3.9
	c3,0.4,3.9-5.6,3.6-9.3C25.1,13.9,27.4,14,28.5,12.1 M22.1,11.2c0.2-0.1,0.3,0.2,0.4,0.8C22.1,11.7,22,11.3,22.1,11.2"/>
<text transform="matrix(0.997 0 0 1 35.8332 17.4276)" fill="#FFFFFF" style="font-family: 'Gotham-Bold'" font-family="'Gotham-Bold'" font-size="7.7546">WELCOM</text>
<text transform="matrix(0.997 0 0 1.0417 42.9611 22.9305)"><tspan x="0" y="0" fill="#FFFFFF" font-family="'Gotham-Light'" font-size="4.4483">T</tspan><tspan x="2.6" y="0" fill="#FFFFFF" font-family="'Gotham-Light'" font-size="4.4483">O</tspan><tspan x="6.4" y="0" fill="#FFFFFF" font-family="'Gotham-Bold'" font-size="4.4483"> </tspan></text>
<text transform="matrix(0.997 0 0 1.0417 50.6916 22.9305)"><tspan x="0" y="0" fill="#FFFFFF" font-family="'Gotham-Light'" font-size="4.4483">P</tspan><tspan x="2.7" y="0" fill="#FFFFFF" font-family="'Gotham-Light'" font-size="4.4483">ARIS</tspan></text>
<text transform="matrix(0.997 0 0 1.0417 64.1076 22.9305)" fill="#090F35" font-family="'Gotham-Light'" font-size="7.4444"> </text>
<path fill="#D95E72" d="M73.9,13.8c0,0,1.8,0.3,2.4-0.8c1.1-2.2-0.7-3.4-1.9-2.6c-0.1,0.1-0.2,0.3-0.3,0.3
	C74.6,10.9,75.3,12.9,73.9,13.8"/>
</svg>
