<?xml version="1.0" encoding="utf-8"?>
<!-- Generator: Adobe Illustrator 18.0.0, SVG Export Plug-In . SVG Version: 6.00 Build 0)  -->
<!DOCTYPE svg PUBLIC "-//W3C//DTD SVG 1.1//EN" "http://www.w3.org/Graphics/SVG/1.1/DTD/svg11.dtd">
<svg version="1.1" id="Calque_1" xmlns="http://www.w3.org/2000/svg" xmlns:xlink="http://www.w3.org/1999/xlink" x="0px" y="0px"
	 viewBox="0 0 380 140" enable-background="new 0 0 380 140" xml:space="preserve">
<path fill="#0C1336" d="M142.1,32.2C133.9,18.1,119.3,9.8,101.3,6l-0.5-0.1c-7.7-1.6-16-2.3-24.7-2.3C35.7,3.6,3,19.5,3,61.1
	c0,1.2,0,2.4,0.1,3.6l0,0.9c0.1,2.5,0.4,5,0.8,7.4l0,0c2.3,14.8,8.7,28.1,18.1,38.7l0.5,0.5c13.3,14.8,32.4,24.1,53.6,24.1
	c15.8,0,28.8-3.2,39.2-8.8c18,3.3,31.7-1.7,39.9-6.5l5-3.3c2.6-2,4-3.4,4-3.4c-15.2,4.3-24.8,0.6-29.9-3c1.2-1.5,2.3-3.1,3.3-4.8
	l0.3-0.4c7.7-12.6,11.3-28.2,11.3-45.1c0-9.8-1.8-18.1-5.1-25.2 M157.3,119.7C157.3,119.7,157.3,119.7,157.3,119.7"/>
<path fill="#FED224" d="M129.9,52.2c7.8-12.5-3-24.3-10.5-19.5c-0.7,0.4-1.4,1.5-1.6,1.7c3.3,1.3,7.4,13.9-1.2,19.3
	c-4.9,3.1-9.7,2.7-13.5,1.1c-0.7-5.5-2-9.6-3.7-11c-3.8-2.9-8.8-0.9-6.2,6.1c0.7,2,2.7,4,5.5,5.8c0.4,15.2-3.7,45.7-11.4,45.9
	c-7,0.2-2.7-32-0.8-39.4c0,0,1.7-7.7-8.6-6.6c-0.8,0.1-2.6,4.8-4,11.3c-4.1,12.7-11.1,32.5-14.6,32.3c-5.2-0.4,2.3-38.4,11.3-58.4
	c0,0,2.6-8.9-5.2-9.3c-2.1-0.1-4.1,1.1-5.9,3.2c-11.3,8.4-30,13.4-35.8,26.4c-6.7,15,9.5,22.4,14.5,17l0.2-0.2
	c-4.5-4.9-4.2-12.3,0-17.4c2.6-3.2,9.8-10.9,16-17.1c-3.1,6.9-5.7,16.3-8.1,26.2c-4.8,20.5-5.9,38.2,11.5,39
	c4.9,0.2,10-10.4,14.1-22.3c0.3,10.2,3.4,19.2,12.5,20.4c15.7,2,20.5-29.2,19-48.5C112.1,61.7,123.8,61.9,129.9,52.2 M96.5,47.5
	c1-0.6,1.7,1.2,2.1,4.4C96.5,50,95.5,48,96.5,47.5"/>
<text transform="matrix(1 0 0 1 163.3812 73.9095)" fill="#091137" font-family="'Gotham-Bold'" font-size="40.4369">WELCOM</text>
<text transform="matrix(1 0 0 1.0417 162.6624 102.6028)"><tspan x="0" y="0" fill="#091137" font-family="'Gotham-Light'" font-size="23.196" letter-spacing="-1">T</tspan><tspan x="13.8" y="0" fill="#091137" font-family="'Gotham-Light'" font-size="23.196">O </tspan></text>
<text transform="matrix(1 0 0 1.0417 209.0931 102.6028)"><tspan x="0" y="0" fill="#091137" font-family="'Gotham-Light'" font-size="23.196" letter-spacing="-1">P</tspan><tspan x="13.9" y="0" fill="#091137" font-family="'Gotham-Light'" font-size="23.196">ARIS</tspan></text>
<text transform="matrix(1 0 0 1.0417 311.2601 102.6028)" fill="#091137" font-family="'Gotham-Light'" font-size="38.8194"> </text>
<path fill="#D95A70" d="M362.5,55c0,0,9.5,1.4,12.3-4.3c5.6-11.2-3.6-17.7-10-13.6c-0.6,0.4-1.2,1.3-1.3,1.4
	C366.3,39.7,369.8,50.4,362.5,55"/>
</svg>
