<?xml version="1.0" standalone="no"?>
<!DOCTYPE svg PUBLIC "-//W3C//DTD SVG 20010904//EN"
 "http://www.w3.org/TR/2001/REC-SVG-20010904/DTD/svg10.dtd">
<svg version="1.0" xmlns="http://www.w3.org/2000/svg"
 width="700.000000pt" height="700.000000pt" viewBox="0 0 700.000000 700.000000"
 preserveAspectRatio="xMidYMid meet">
<metadata>
Created by potrace 1.11, written by Peter Selinger 2001-2013
</metadata>
<g transform="translate(0.000000,700.000000) scale(0.100000,-0.100000)"
fill="#000000" stroke="none">
<path d="M2674 6334 c-898 -78 -1555 -330 -2017 -774 -352 -337 -554 -755
-633 -1310 -21 -149 -30 -563 -15 -730 33 -372 172 -828 365 -1195 358 -680
963 -1234 1649 -1509 363 -146 691 -213 1092 -223 617 -16 1174 94 1668 330
l108 51 82 -12 c260 -37 572 -40 780 -7 441 69 811 231 1160 508 48 38 86 72
83 74 -3 3 -45 -5 -95 -16 -209 -49 -502 -67 -667 -41 -187 30 -392 106 -522
196 -2 1 21 35 50 76 385 545 588 1267 588 2098 0 432 -56 757 -178 1036 -41
94 -184 325 -280 452 -264 352 -701 643 -1207 805 -298 96 -710 170 -1093 196
-205 15 -730 12 -918 -5z m135 -1210 c46 -19 78 -49 104 -99 19 -34 22 -56 21
-150 l0 -110 -66 -160 c-292 -716 -557 -1926 -498 -2273 15 -93 44 -132 86
-117 101 36 304 475 531 1150 46 138 97 302 113 365 33 130 66 228 103 313
l26 57 89 0 c137 0 230 -38 267 -110 36 -69 38 -121 11 -257 -82 -411 -122
-825 -114 -1163 7 -262 36 -385 104 -439 73 -58 175 4 261 159 145 261 264
882 293 1525 5 121 10 234 10 252 0 27 -9 39 -64 81 -123 97 -172 165 -202
277 -19 71 -17 122 7 172 25 52 64 75 128 75 91 -1 164 -46 208 -128 33 -62
75 -211 94 -330 l10 -72 52 -16 c126 -39 215 -45 327 -21 106 22 205 72 278
140 110 101 153 205 154 365 0 154 -49 305 -123 379 l-32 32 20 27 c11 15 44
41 74 57 48 27 63 30 134 29 102 0 175 -33 256 -114 183 -182 203 -469 52
-746 -53 -97 -195 -238 -288 -286 -118 -61 -194 -80 -342 -85 -186 -8 -316 16
-516 93 -16 6 -17 -3 -11 -157 7 -175 -7 -485 -31 -679 -90 -725 -318 -1171
-640 -1255 -79 -20 -136 -19 -229 5 -107 27 -169 63 -248 142 -108 108 -175
267 -213 508 -8 52 -15 122 -15 154 0 36 -4 56 -9 50 -5 -5 -35 -76 -66 -159
-169 -440 -335 -717 -469 -779 -76 -35 -273 -5 -400 62 -324 170 -394 609
-224 1407 78 367 238 913 362 1234 20 52 35 95 34 96 -4 3 -444 -465 -560
-596 -169 -189 -222 -275 -252 -406 -37 -165 -1 -334 96 -456 29 -37 29 -39
13 -57 -26 -29 -93 -58 -150 -65 -123 -16 -278 46 -388 156 -117 117 -165 257
-146 428 32 286 219 537 576 774 92 61 218 133 628 357 231 127 358 208 441
281 38 33 81 67 96 75 68 35 164 39 237 8z"/>
<path d="M4045 4430 c-7 -23 43 -116 79 -148 18 -17 19 -15 13 36 -8 70 -36
126 -64 130 -15 2 -23 -3 -28 -18z"/>
<path d="M6585 5547 c-47 -16 -121 -63 -129 -82 -2 -7 2 -19 11 -27 48 -39 95
-151 113 -270 21 -144 -22 -288 -114 -381 -58 -58 -52 -62 78 -53 233 16 342
82 405 246 96 247 44 456 -134 547 -60 31 -168 40 -230 20z"/>
</g>
</svg>
